<svg xmlns="http://www.w3.org/2000/svg" viewBox="0 0 800 800" role="img" aria-labelledby="title desc">
  <title id="title">Flavors from the Galley</title>
  <desc id="desc">A nautical chef mark for Flavors from the Galley.</desc>
  <rect width="800" height="800" rx="400" fill="#fbf6eb"/>
  <circle cx="400" cy="400" r="338" fill="none" stroke="#163d24" stroke-width="22"/>
  <circle cx="400" cy="400" r="295" fill="#fffdf8" stroke="#b98420" stroke-width="10"/>
  <path d="M232 246c15-79 82-122 168-122s153 43 168 122" fill="none" stroke="#073757" stroke-width="24" stroke-linecap="round"/>
  <path d="M306 163c8-57 45-86 94-86s86 29 94 86" fill="#fffdf8" stroke="#073757" stroke-width="22" stroke-linejoin="round"/>
  <circle cx="320" cy="171" r="32" fill="#fffdf8" stroke="#073757" stroke-width="18"/>
  <circle cx="400" cy="145" r="38" fill="#fffdf8" stroke="#073757" stroke-width="18"/>
  <circle cx="480" cy="171" r="32" fill="#fffdf8" stroke="#073757" stroke-width="18"/>
  <path d="M255 325c20 97 78 153 145 153s125-56 145-153" fill="none" stroke="#073757" stroke-width="22" stroke-linecap="round"/>
  <path d="M300 566h200" stroke="#163d24" stroke-width="26" stroke-linecap="round"/>
  <path d="M265 612h270" stroke="#163d24" stroke-width="18" stroke-linecap="round"/>
  <path d="M234 655h332" stroke="#163d24" stroke-width="12" stroke-linecap="round"/>
  <path d="M216 286h368" stroke="#b98420" stroke-width="18" stroke-linecap="round"/>
  <text x="400" y="718" text-anchor="middle" fill="#073757" font-family="Georgia, 'Times New Roman', serif" font-size="54" font-weight="700">GALLEY</text>
</svg>
