<svg xmlns="http://www.w3.org/2000/svg" viewBox="0 0 240 240" role="img" aria-labelledby="title">
  <title id="title">Flavors from the Galley logo</title>
  <rect width="240" height="240" fill="#fffdf8"/>
  <circle cx="120" cy="120" r="105" fill="#fffdf8" stroke="#163d24" stroke-width="8"/>
  <circle cx="120" cy="120" r="93" fill="none" stroke="#b98420" stroke-width="3"/>
  <path d="M77 63c2-20 21-31 43-31s41 11 43 31c9 3 15 11 15 21 0 14-12 24-26 22H88c-14 2-26-8-26-22 0-10 6-18 15-21z" fill="#fff8e8" stroke="#073757" stroke-width="5" stroke-linejoin="round"/>
  <path d="M86 63c7-14 19-20 34-20s27 6 34 20M104 43c-7 12-7 27 0 43M120 38v50M136 43c7 12 7 27 0 43" fill="none" stroke="#d8c69b" stroke-width="3" stroke-linecap="round"/>
  <text x="120" y="111" text-anchor="middle" font-family="Georgia, Times New Roman, serif" font-size="42" font-weight="700" fill="#163d24">Flavors</text>
  <text x="120" y="137" text-anchor="middle" font-family="Arial, Helvetica, sans-serif" font-size="14" font-weight="800" letter-spacing="3" fill="#073757">FROM THE</text>
  <text x="120" y="175" text-anchor="middle" font-family="Georgia, Times New Roman, serif" font-size="48" font-weight="700" fill="#163d24">Galley</text>
  <path d="M66 188c31 18 77 18 108 0" fill="none" stroke="#073757" stroke-width="5" stroke-linecap="round"/>
  <path d="M82 199c24 10 52 10 76 0" fill="none" stroke="#b98420" stroke-width="3" stroke-linecap="round"/>
</svg>
